<?xml version="1.0" encoding="UTF-8"?>
<!DOCTYPE svg PUBLIC "-//W3C//DTD SVG 1.1//EN" "http://www.w3.org/Graphics/SVG/1.1/DTD/svg11.dtd">
<svg version="1.1" xmlns="http://www.w3.org/2000/svg" xmlns:xlink="http://www.w3.org/1999/xlink" x="0" y="0" width="624" height="624" viewBox="0, 0, 624, 624">
  <defs>
    <linearGradient id="Gradient_1" gradientUnits="userSpaceOnUse" x1="314.096" y1="356.8" x2="224.192" y2="482.944">
      <stop offset="0" stop-color="#F2B8AB"/>
      <stop offset="0.481" stop-color="#CAC2BB"/>
      <stop offset="1" stop-color="#CAC2BB"/>
    </linearGradient>
    <linearGradient id="Gradient_2" gradientUnits="userSpaceOnUse" x1="237.553" y1="221.717" x2="429.458" y2="221.717">
      <stop offset="0" stop-color="#E57A7F"/>
      <stop offset="1" stop-color="#A94B3B"/>
    </linearGradient>
    <linearGradient id="Gradient_3" gradientUnits="userSpaceOnUse" x1="294.95" y1="281.419" x2="505.585" y2="281.419">
      <stop offset="0" stop-color="#E57A7F"/>
      <stop offset="1" stop-color="#A94B3B"/>
    </linearGradient>
    <linearGradient id="Gradient_4" gradientUnits="userSpaceOnUse" x1="360.165" y1="352.413" x2="566.075" y2="352.413">
      <stop offset="0" stop-color="#E57A7F"/>
      <stop offset="1" stop-color="#A94B3B"/>
    </linearGradient>
    <linearGradient id="Gradient_5" gradientUnits="userSpaceOnUse" x1="205.147" y1="210.9" x2="509.719" y2="358.656">
      <stop offset="0" stop-color="#A94B3B"/>
      <stop offset="0.286" stop-color="#E36863"/>
      <stop offset="1" stop-color="#A94B3B"/>
    </linearGradient>
    <linearGradient id="Gradient_6" gradientUnits="userSpaceOnUse" x1="180.608" y1="192.196" x2="347.874" y2="192.196">
      <stop offset="0" stop-color="#E57A7F"/>
      <stop offset="1" stop-color="#A94B3B"/>
    </linearGradient>
    <linearGradient id="Gradient_7" gradientUnits="userSpaceOnUse" x1="205.331" y1="210.525" x2="509.912" y2="358.285">
      <stop offset="0" stop-color="#A94B3B"/>
      <stop offset="0.286" stop-color="#E36863"/>
      <stop offset="1" stop-color="#A94B3B"/>
    </linearGradient>
    <linearGradient id="Gradient_8" gradientUnits="userSpaceOnUse" x1="197.427" y1="226.815" x2="501.997" y2="374.57">
      <stop offset="0" stop-color="#A94B3B"/>
      <stop offset="0.286" stop-color="#E36863"/>
      <stop offset="1" stop-color="#A94B3B"/>
    </linearGradient>
    <linearGradient id="Gradient_9" gradientUnits="userSpaceOnUse" x1="179.837" y1="263.113" x2="484.475" y2="410.901">
      <stop offset="0" stop-color="#A94B3B"/>
      <stop offset="0.286" stop-color="#E36863"/>
      <stop offset="1" stop-color="#A94B3B"/>
    </linearGradient>
    <linearGradient id="Gradient_10" gradientUnits="userSpaceOnUse" x1="202.205" y1="216.972" x2="506.776" y2="364.727">
      <stop offset="0" stop-color="#A94B3B"/>
      <stop offset="0.286" stop-color="#E36863"/>
      <stop offset="1" stop-color="#A94B3B"/>
    </linearGradient>
    <linearGradient id="Gradient_11" gradientUnits="userSpaceOnUse" x1="196.566" y1="228.603" x2="501.152" y2="376.366">
      <stop offset="0" stop-color="#A94B3B"/>
      <stop offset="0.286" stop-color="#E36863"/>
      <stop offset="1" stop-color="#A94B3B"/>
    </linearGradient>
    <linearGradient id="Gradient_12" gradientUnits="userSpaceOnUse" x1="226.788" y1="197.66" x2="356.649" y2="197.66">
      <stop offset="0" stop-color="#FCE2D6"/>
      <stop offset="1" stop-color="#E5706B"/>
    </linearGradient>
    <linearGradient id="Gradient_13" gradientUnits="userSpaceOnUse" x1="227.47" y1="233.14" x2="240.337" y2="233.14">
      <stop offset="0" stop-color="#FCE2D6"/>
      <stop offset="1" stop-color="#E5706B"/>
    </linearGradient>
    <linearGradient id="Gradient_14" gradientUnits="userSpaceOnUse" x1="170.612" y1="229.8" x2="186.97" y2="229.8">
      <stop offset="0" stop-color="#FCE2D6"/>
      <stop offset="1" stop-color="#E5706B"/>
    </linearGradient>
    <linearGradient id="Gradient_15" gradientUnits="userSpaceOnUse" x1="188.874" y1="235.659" x2="113.908" y2="242.152">
      <stop offset="0" stop-color="#FCE2D6"/>
      <stop offset="1" stop-color="#E5706B"/>
    </linearGradient>
    <linearGradient id="Gradient_16" gradientUnits="userSpaceOnUse" x1="291.335" y1="239.626" x2="468.754" y2="239.626">
      <stop offset="0" stop-color="#FCE2D6"/>
      <stop offset="1" stop-color="#E5706B"/>
    </linearGradient>
    <linearGradient id="Gradient_17" gradientUnits="userSpaceOnUse" x1="355.911" y1="316.06" x2="515.619" y2="316.06">
      <stop offset="0" stop-color="#FCE2D6"/>
      <stop offset="1" stop-color="#E5706B"/>
    </linearGradient>
    <linearGradient id="Gradient_18" gradientUnits="userSpaceOnUse" x1="209.49" y1="299.227" x2="415.536" y2="299.227">
      <stop offset="0" stop-color="#E57A7F"/>
      <stop offset="1" stop-color="#A94B3B"/>
    </linearGradient>
    <linearGradient id="Gradient_19" gradientUnits="userSpaceOnUse" x1="271.114" y1="367.585" x2="501.275" y2="367.585">
      <stop offset="0" stop-color="#E57A7F"/>
      <stop offset="1" stop-color="#A94B3B"/>
    </linearGradient>
    <linearGradient id="Gradient_20" gradientUnits="userSpaceOnUse" x1="338.634" y1="442.006" x2="568.697" y2="442.006">
      <stop offset="0" stop-color="#E57A7F"/>
      <stop offset="1" stop-color="#A94B3B"/>
    </linearGradient>
    <linearGradient id="Gradient_21" gradientUnits="userSpaceOnUse" x1="145.734" y1="260.111" x2="324.797" y2="260.111">
      <stop offset="0" stop-color="#E57A7F"/>
      <stop offset="1" stop-color="#A94B3B"/>
    </linearGradient>
    <linearGradient id="Gradient_22" gradientUnits="userSpaceOnUse" x1="524.726" y1="473.991" x2="222.242" y2="304.628">
      <stop offset="0" stop-color="#A94B3B"/>
      <stop offset="0.286" stop-color="#E36863"/>
      <stop offset="1" stop-color="#A94B3B"/>
    </linearGradient>
    <linearGradient id="Gradient_23" gradientUnits="userSpaceOnUse" x1="519.987" y1="482.437" x2="217.508" y2="313.077">
      <stop offset="0" stop-color="#A94B3B"/>
      <stop offset="0.286" stop-color="#E36863"/>
      <stop offset="1" stop-color="#A94B3B"/>
    </linearGradient>
    <linearGradient id="Gradient_24" gradientUnits="userSpaceOnUse" x1="489.353" y1="537.102" x2="186.889" y2="367.75">
      <stop offset="0" stop-color="#A94B3B"/>
      <stop offset="0.286" stop-color="#E36863"/>
      <stop offset="1" stop-color="#A94B3B"/>
    </linearGradient>
    <linearGradient id="Gradient_25" gradientUnits="userSpaceOnUse" x1="513.677" y1="493.67" x2="211.219" y2="324.321">
      <stop offset="0" stop-color="#A94B3B"/>
      <stop offset="0.286" stop-color="#E36863"/>
      <stop offset="1" stop-color="#A94B3B"/>
    </linearGradient>
    <linearGradient id="Gradient_26" gradientUnits="userSpaceOnUse" x1="518.807" y1="484.547" x2="216.328" y2="315.187">
      <stop offset="0" stop-color="#A94B3B"/>
      <stop offset="0.286" stop-color="#E36863"/>
      <stop offset="1" stop-color="#A94B3B"/>
    </linearGradient>
    <linearGradient id="Gradient_27" gradientUnits="userSpaceOnUse" x1="511.938" y1="496.779" x2="209.475" y2="327.428">
      <stop offset="0" stop-color="#A94B3B"/>
      <stop offset="0.286" stop-color="#E36863"/>
      <stop offset="1" stop-color="#A94B3B"/>
    </linearGradient>
    <linearGradient id="Gradient_28" gradientUnits="userSpaceOnUse" x1="197.855" y1="268.363" x2="334.219" y2="268.363">
      <stop offset="0" stop-color="#FCE2D6"/>
      <stop offset="1" stop-color="#E5706B"/>
    </linearGradient>
    <linearGradient id="Gradient_29" gradientUnits="userSpaceOnUse" x1="195.668" y1="307.713" x2="211.926" y2="307.713">
      <stop offset="0" stop-color="#FCE2D6"/>
      <stop offset="1" stop-color="#E5706B"/>
    </linearGradient>
    <linearGradient id="Gradient_30" gradientUnits="userSpaceOnUse" x1="148.003" y1="273.805" x2="154.5" y2="273.805">
      <stop offset="0" stop-color="#FCE2D6"/>
      <stop offset="1" stop-color="#E5706B"/>
    </linearGradient>
    <linearGradient id="Gradient_31" gradientUnits="userSpaceOnUse" x1="194.442" y1="299.984" x2="119.482" y2="306.477">
      <stop offset="0" stop-color="#FCE2D6"/>
      <stop offset="1" stop-color="#E5706B"/>
    </linearGradient>
    <linearGradient id="Gradient_32" gradientUnits="userSpaceOnUse" x1="195.063" y1="306.87" x2="120.073" y2="313.365">
      <stop offset="0" stop-color="#FCE2D6"/>
      <stop offset="1" stop-color="#E5706B"/>
    </linearGradient>
    <linearGradient id="Gradient_33" gradientUnits="userSpaceOnUse" x1="267.247" y1="320.763" x2="446.635" y2="320.763">
      <stop offset="0" stop-color="#FCE2D6"/>
      <stop offset="1" stop-color="#E5706B"/>
    </linearGradient>
    <linearGradient id="Gradient_34" gradientUnits="userSpaceOnUse" x1="253.114" y1="354.07" x2="271.114" y2="354.07">
      <stop offset="0" stop-color="#FCE2D6"/>
      <stop offset="1" stop-color="#E5706B"/>
    </linearGradient>
    <linearGradient id="Gradient_35" gradientUnits="userSpaceOnUse" x1="504.437" y1="373.486" x2="419.437" y2="416.853">
      <stop offset="0" stop-color="#FCE2D6"/>
      <stop offset="1" stop-color="#E5706B"/>
    </linearGradient>
    <linearGradient id="Gradient_36" gradientUnits="userSpaceOnUse" x1="328.208" y1="401.914" x2="338.635" y2="401.914">
      <stop offset="0" stop-color="#FCE2D6"/>
      <stop offset="1" stop-color="#E5706B"/>
    </linearGradient>
  </defs>
  <g id="Layer_1">
    <path d="M168.014,248.896 C169.8,250.922 178.969,252.504 182.977,251.28 C183.054,255.668 189.734,252.926 192.356,252.004 C193.917,257.826 194.522,258.705 200.091,258.902 C199.613,265.934 199.641,271.115 204.197,277.289 C205.688,279.307 207.72,277.809 208.584,277.197 C209.583,284.215 211.77,292.969 214.913,288.518 C213.247,292.94 213.394,302.602 218.063,301.35 C218.063,301.35 223.786,310.912 229.256,305.555 C231.985,311.65 232.266,310.483 235.163,308.684 C236.681,311.883 249.415,320.447 249.563,311.96 C250.477,313.697 251.461,320.707 259.083,320.883 C259.196,327.028 268.28,328.926 276.155,326.732 C277.688,330.522 288.516,330.937 292.25,326.191 C291.153,331.184 294.478,336.984 296.785,334.594 C296.587,340.457 299.597,345.675 307.184,344.086 C311.368,349.584 311.86,350.252 316.894,347.145 C317.872,352.987 325.767,354.956 330.739,352.488 C331.125,358.043 342.811,356.391 348.317,352.488 C346.665,359.245 351.685,361.791 358.055,357.881 C357.879,364.912 363.975,361.889 368.954,361.805 C368.954,361.805 357.387,370.186 381.075,368.625 C394.814,367.725 392.726,365.51 395.897,362.824 C395.897,362.824 399.828,369.482 407.942,364.969 C407.751,369.939 414.952,380.958 419.825,375.023 C423.966,377.287 426.012,377.555 429.458,373.687 C434.189,376.247 444.694,379.01 449.405,376.289 C452.028,374.777 450.551,373.631 449.637,371.895 C454.594,370.924 455.522,373.842 459.833,368.498 L267.493,245.486 L177.436,234.975 L168.014,248.896" fill="#D8C7C0"/>
    <path d="M199.142,250.971 C198.734,255.246 200.344,259.092 204.95,255.189 C208.008,260.245 205.519,263.684 208.536,267.03 C212.333,264.422 210.188,264.035 215.714,263.937 C215.714,263.937 208.254,270.707 212.508,275.461 C218.133,281.747 219.694,273.646 219.694,273.646 C219.694,273.646 221.255,290.613 225.438,286.296 C229.608,281.978 229.953,277.303 229.931,275.18 C233.004,281.494 234.305,283.174 238.559,283.947 C233.095,287.027 228.455,288.37 229.383,293.447 C236.133,290.789 239.072,289.045 242.532,292.385 C240.506,298.361 239.311,303.487 243.178,306.398 C247.06,309.316 249.506,302.896 250.301,299.908 C250.864,308.395 253.536,315.996 259.02,313.781 C260.602,306.539 260.989,303.979 262.233,302.686 C262.233,302.686 264.926,311.145 266.649,311.96 C268.35,312.775 273.399,308.873 271.184,303.389 C271.184,303.389 272.696,307.073 275.445,309.97 C274.531,319.09 279.361,313.289 281.962,313.408 C280.817,320.65 282.961,323.168 288.91,322.219 C290.52,317.086 291.792,317.064 294.739,314.885 C295.231,319.139 293.22,325.537 297.91,326.732 C301.65,321.586 305.897,321.937 309.736,322.289 C309.828,328.666 308.217,333.363 310.383,336.295 C312.563,339.234 315.572,340.894 318.075,338.728 C320.255,342.518 319.439,344.227 323.306,346.715 C323.306,346.715 327.863,340.261 330.408,339.375 C330.408,339.375 327.757,333.891 328.559,330.902 C333.298,334.221 337.608,338.404 341.869,338.334 C336.413,343.102 335.196,346.94 336.926,348.614 C338.656,350.28 346.306,350.161 351.34,346.244 C356.368,342.342 359.264,337.617 359.264,337.617 C359.264,337.617 363.384,329.475 354.434,328.35 C350.616,327.879 347.993,323.779 344.133,321.727 C340.266,319.666 332.166,317.676 330.464,317.697 C328.77,317.726 322.646,306.785 319.306,310.666 C315.973,314.541 312.858,306.096 309.891,306.152 C306.91,306.194 301.348,303.318 298.795,304.197 C296.278,305.098 290.632,297.961 289.767,296.709 C288.881,295.443 282.483,293.426 276.95,292.244 C271.395,291.056 273.469,287.625 269.574,283.863 C268.02,282.365 265.524,282.45 264.504,285.22 C263.822,282.471 258.999,275.637 257.965,275.145 C256.25,274.314 255.047,278.59 255.047,278.59 C255.947,281.543 249.788,267.621 242.545,267.74 C245.133,270.244 245.147,271.102 245.189,273.225 C245.217,275.348 235.704,264.886 234.017,265.758 C234.361,261.082 230.501,259.021 228.399,259.9 C226.29,260.801 224.18,261.68 221.592,259.162 C220.559,258.171 217.008,258.705 216.22,255.352 C215.813,256.828 212.691,257.004 211.707,256.582 C209.794,255.759 209.942,253.326 209.59,252.996 C208.725,252.159 200.147,248.426 199.142,250.971" fill="#FFFFFE"/>
    <path d="M363.356,340.739 C363.384,342.236 361.514,345.872 363.483,348.6 C361.852,352.242 361.711,357.129 366.169,356.637 C370.626,356.123 373.369,354.809 375.872,352.643 C377.806,354.098 381.553,356.355 383.579,355.701 C379.149,357.902 373.875,360.328 375.394,362.416 C376.913,364.519 390.258,362.381 393.408,359.779 C396.431,362.283 398.766,362.676 401.1,362.627 C403.442,362.592 403.61,360.258 404.004,358.338 C405.952,360.434 406.795,360.834 410.22,361.418 C411.337,364.807 412.491,370.523 415.683,371.1 C418.889,371.684 418.608,367.865 418.798,366.593 C420.337,369.328 420.774,370.383 424.149,368.836 C427.524,367.296 428.965,364.512 426.146,361.158 C423.333,357.811 417.567,355.982 417.384,357.902 C415.022,356.883 410.494,351.855 403.688,351.546 C399.16,348.22 396.15,345.295 391.7,346.012 C388.683,343.713 384.598,340.605 380.14,341.098 C376.913,338.391 374.543,336.738 371.991,336.773 C369.446,336.815 363.223,332.885 363.356,340.739" fill="#FFFFFE"/>
    <path d="M131.17,325.2 C133.083,327.422 143.011,329.306 147.384,328.055 C147.384,332.836 154.711,329.967 157.559,329.011 C159.155,335.367 159.788,336.323 165.834,336.64 C165.202,344.269 165.131,349.9 169.969,356.672 C171.551,358.9 173.773,357.305 174.736,356.672 C175.692,364.301 177.915,373.842 181.416,369.075 C179.503,373.842 179.503,384.333 184.594,383.053 C184.594,383.053 190.634,393.551 196.673,387.827 C199.536,394.5 199.852,393.234 203.03,391.322 C204.619,394.823 218.288,404.357 218.611,395.14 C219.553,397.045 220.517,404.674 228.786,404.99 C228.786,411.67 238.629,413.906 247.228,411.67 C248.803,415.805 260.574,416.444 264.715,411.353 C263.428,416.754 266.93,423.117 269.475,420.586 C269.166,426.928 272.337,432.658 280.606,431.062 C285.056,437.109 285.563,437.848 291.103,434.557 C292.045,440.92 300.595,443.198 306.038,440.603 C306.361,446.65 319.067,445.055 325.114,440.92 C323.194,448.232 328.608,451.102 335.611,446.96 C335.288,454.596 341.954,451.418 347.368,451.418 C347.368,451.418 334.648,460.319 360.411,459.047 C375.337,458.309 373.109,455.861 376.618,453 C376.618,453 380.751,460.312 389.653,455.545 C389.33,460.952 396.966,473.025 402.366,466.676 C406.817,469.221 409.039,469.537 412.864,465.41 C417.947,468.265 429.317,471.457 434.485,468.588 C437.353,466.992 435.75,465.727 434.801,463.814 C440.194,462.857 441.165,466.043 445.931,460.312 L239.283,323.287 L141.668,310.244 L131.17,325.2 z" fill="url(#Gradient_1)"/>
    <path d="M164.942,328.02 C164.428,332.639 166.102,336.857 171.178,332.702 C174.413,338.228 171.649,341.934 174.876,345.611 C179.025,342.855 176.719,342.384 182.709,342.384 C182.709,342.384 174.483,349.605 179.025,354.851 C185.016,361.77 186.858,352.994 186.858,352.994 C186.858,352.994 188.25,371.451 192.856,366.846 C197.475,362.233 197.946,357.15 197.946,354.851 C201.173,361.77 202.559,363.611 207.165,364.533 C201.173,367.76 196.09,369.152 197.011,374.686 C204.394,371.916 207.622,370.073 211.327,373.758 C209.006,380.227 207.622,385.76 211.791,388.994 C215.939,392.215 218.696,385.296 219.624,382.068 C220.087,391.301 222.851,399.598 228.856,397.291 C230.691,389.451 231.155,386.674 232.547,385.296 C232.547,385.296 235.303,394.535 237.173,395.449 C239.001,396.37 244.536,392.215 242.236,386.217 C242.236,386.217 243.811,390.253 246.75,393.459 C245.597,403.324 250.934,397.115 253.767,397.291 C252.389,405.131 254.696,407.908 261.15,406.98 C262.993,401.447 264.384,401.447 267.619,399.141 C268.069,403.753 265.763,410.672 270.833,412.057 C274.988,406.523 279.6,406.98 283.763,407.451 C283.763,414.363 281.92,419.439 284.227,422.674 C286.533,425.895 289.767,427.744 292.524,425.437 C294.83,429.593 293.916,431.428 298.064,434.205 C298.064,434.205 303.141,427.279 305.897,426.358 C305.897,426.358 303.141,420.361 304.055,417.141 C309.131,420.832 313.744,425.437 318.364,425.437 C312.359,430.514 310.981,434.677 312.83,436.512 C314.672,438.353 322.969,438.353 328.517,434.205 C334.043,430.05 337.285,424.98 337.285,424.98 C337.285,424.98 341.883,416.205 332.194,414.827 C328.067,414.236 325.29,409.758 321.134,407.451 C316.978,405.131 308.217,402.832 306.361,402.832 C304.512,402.832 298.064,390.83 294.366,394.992 C290.681,399.141 287.447,389.908 284.227,389.908 C280.993,389.908 274.988,386.674 272.217,387.609 C269.447,388.53 263.45,380.684 262.536,379.291 C261.622,377.92 254.696,375.614 248.691,374.228 C242.686,372.844 244.993,369.152 240.851,365.004 C239.192,363.33 236.47,363.387 235.303,366.382 C234.622,363.387 229.496,355.863 228.384,355.308 C226.556,354.387 225.165,358.999 225.165,358.999 C226.079,362.233 219.666,347.004 211.791,347.004 C214.554,349.767 214.554,350.695 214.554,352.994 C214.554,355.308 204.394,343.77 202.559,344.697 C203.016,339.621 198.868,337.314 196.554,338.228 C194.241,339.164 191.942,340.078 189.171,337.314 C188.067,336.211 184.208,336.738 183.399,333.075 C182.962,334.671 179.545,334.805 178.477,334.326 C176.431,333.412 176.621,330.762 176.262,330.389 C175.327,329.475 166.087,325.27 164.942,328.02" fill="#FFFFFE"/>
    <path d="M341.672,428.439 C341.672,430.064 339.577,433.98 341.672,436.976 C339.809,440.892 339.577,446.193 344.428,445.736 C349.28,445.279 352.275,443.895 355.039,441.588 C357.126,443.198 361.149,445.729 363.342,445.055 C358.491,447.353 352.725,449.885 354.342,452.198 C355.974,454.512 370.493,452.423 373.959,449.66 C377.194,452.423 379.718,452.895 382.271,452.895 C384.788,452.895 385.041,450.363 385.491,448.275 C387.572,450.588 388.493,451.045 392.17,451.741 C393.337,455.433 394.491,461.662 397.95,462.352 C401.423,463.041 401.17,458.885 401.423,457.507 C403.041,460.502 403.491,461.662 407.175,460.045 C410.874,458.428 412.491,455.433 409.489,451.741 C406.493,448.043 400.256,445.969 400.032,448.043 C397.493,446.896 392.649,441.363 385.266,440.892 C380.415,437.208 377.194,433.98 372.342,434.677 C369.108,432.131 364.735,428.672 359.883,429.136 C356.431,426.126 353.892,424.284 351.129,424.284 C348.352,424.284 341.672,419.896 341.672,428.439" fill="#FFFFFE"/>
    <path d="M327.891,192.168 C311.009,193.125 312.408,191.212 300.989,196.134 C289.571,201.049 278.032,197.871 264.61,204.178 C251.194,210.478 253.325,210.611 242.497,209.437 C236.45,208.783 237.153,208.853 238.397,210.844 C240.366,211.519 242.405,212.355 244.584,213.459 C259.653,221.123 274.214,238.863 274.214,238.863 C281.942,246.352 286.575,249.072 291.335,251.59 C294.478,249.34 297.945,248.496 300.511,248.123 C305.897,247.35 308.597,246.633 311.255,243.891 C313.913,241.148 320.086,247.877 334.36,251.702 C348.619,255.527 341.778,250.9 345.778,247.455 C349.772,244.01 353.78,240.564 357.106,237.809 C360.446,235.045 361.079,232.324 373.953,234.152 C386.827,235.959 393.577,235.172 404.391,234.996 C415.205,234.82 425.731,237.098 422.25,231.74 C418.791,226.396 422.25,231.74 418.875,231.129 C415.486,230.51 393.928,219.154 402.071,220.371 C410.199,221.58 410.297,224.744 421.111,223.9 C425.344,223.57 427.594,223.992 429.458,224.779 C419.775,216.412 410.009,208.291 404.587,205.689 C393.675,200.465 390.089,202.02 381.146,200.908 C371.92,199.77 365.614,197.625 359.215,192.323 C358.442,191.684 357.577,190.994 356.649,190.291 C356.515,190.312 356.381,190.326 356.255,190.348 C344.78,191.895 344.766,191.205 327.891,192.168 z" fill="url(#Gradient_2)"/>
    <path d="M414.178,239.51 C402.696,240.375 395.166,237.352 374.916,238.35 C354.645,239.369 348.528,250.113 342.53,255.611 C336.54,261.124 332.313,249.621 320.122,248.475 C307.929,247.322 313.442,253.994 305.96,250.739 C305.96,250.739 302.051,250.809 294.95,253.467 C299.991,256.16 305.981,259.746 316.177,268.816 C339.056,289.172 343.064,301.35 352.226,310.223 C353.667,311.629 354.863,312.67 355.911,313.478 C356.579,312.705 356.993,312.171 356.993,312.171 L366.458,312.691 C366.458,312.691 384,310.371 388.747,311.65 C388.747,311.65 396.881,312.867 402.225,309.394 C407.59,305.92 422.497,307.713 433.29,306.855 C444.089,306.004 437.333,305.428 442.036,304.008 C446.747,302.573 449.545,308.613 454.327,311.918 C459.129,315.223 459.923,316.523 455.663,304.43 C455.663,304.43 458.855,292.687 453.392,289.396 C447.942,286.106 449.292,286.76 447.915,284.756 C446.522,282.745 450.53,279.975 447.071,274.624 C447.071,274.624 440.756,261.201 447.577,265.153 C454.418,269.098 452.309,272.55 460.43,271.249 C465.141,270.504 468.087,277.936 461.731,277.465 C454.278,276.916 459.129,284.264 459.129,284.264 L461.907,288.271 C461.907,288.271 473.649,294.691 462.863,296.231 C452.077,297.757 464.473,311.749 466.547,314.414 C468.622,317.086 478.079,316.931 482.142,316.861 C486.178,316.791 489.553,316.066 497.78,322.689 C506,329.32 499.454,317.55 504.15,315.447 C504.586,315.244 505.079,315.145 505.584,315.082 C502.041,305.744 500.79,306.623 494.574,295.992 C486.22,281.697 487.887,272.24 478.782,266.988 C471.553,262.805 472.931,262.467 468.755,258.973 C466.118,258.164 452.78,247.062 449.18,245.747 C431.497,239.278 425.653,238.645 414.178,239.51 z" fill="url(#Gradient_3)"/>
    <path d="M487.226,326.086 C479.85,329.58 487.683,335.029 489.806,340.401 C491.916,345.773 497.048,345.387 492.366,348.846 C487.697,352.298 496.163,360.623 486.038,361.46 C475.906,362.311 478.922,367.619 474.183,367.689 C469.458,367.781 461.991,366.551 474.774,362.275 C487.556,358.008 483.717,354.619 480.258,349.936 C476.806,345.267 497.625,353.789 487.325,345.176 C477.052,336.548 461.59,341.533 454.186,344.367 C446.803,347.193 444.764,347.228 441.431,348.635 C438.071,350.041 435.947,344.662 454.137,340.992 C472.327,337.308 461.499,336.809 471.603,333.939 C481.7,331.064 470.878,331.254 455.192,323.393 C439.533,315.539 451.747,318.717 431.363,312.973 C410.993,307.221 416.499,313.894 385.42,315.082 C354.828,316.256 368.728,314.73 360.165,316.115 C363.089,317.515 366.084,318.457 374.1,325.186 C382.496,332.217 411.598,340.345 432.657,350.133 C445.988,356.32 453.61,365.046 458.658,368.625 C463.749,372.26 479.45,384.002 498.083,381.506 C509.543,379.959 537.563,395.983 546.704,393.986 C551.246,393.002 549.165,393.727 565.42,382.863 C565.653,382.723 565.856,382.617 566.075,382.49 C565.47,381.83 564.661,381.141 563.592,380.416 C554.473,374.25 554.304,375.389 547.829,364.687 C541.345,353.965 536.663,345.991 530.321,341.533 C521.447,335.304 519.739,336.682 515.618,330.305 C514.261,330.965 512.672,331.535 510.774,331.936 C500.663,334.137 494.609,322.584 487.226,326.086 z" fill="url(#Gradient_4)"/>
    <path d="M257.438,229.174 C255.666,233.941 253.767,236.908 254.696,241.472 C255.666,246.288 259.625,254.058 261.811,258.628 C271.149,278.168 293.958,278.357 311.747,287.344 C330.458,296.779 349.983,304.197 367.983,315.019 C387.312,326.627 409.538,331.338 429.408,342.271 C440.708,348.494 452.541,354.126 463.72,360.609 C470.709,364.666 476.806,370.664 475.66,360.588 C475.231,356.819 473.262,353.24 472.383,349.676 C472.087,349.626 471.891,349.753 471.813,350.027 C467.82,341.603 460.852,335.016 454.243,328.723 C443.872,318.822 435.244,310.582 427.889,297.342 C422.391,287.428 419.304,285.6 407.92,282.218 C401.536,280.312 395.883,276.6 389.751,274.477 C383.044,272.156 375.809,272.768 369.031,269.568 C362.133,266.32 355.285,261.975 347.592,260.568 C330.415,257.426 321.141,259.964 309.384,245.486 C305.461,240.684 300.75,239.819 295.055,237.809 C283.889,233.85 271.212,232.289 260.813,225.434 L257.438,229.174 z" fill="url(#Gradient_5)"/>
    <path d="M205.181,193.666 C190.5,194.566 174.792,196.76 182.751,202.336 C183.891,200.62 185.051,199.249 186.106,198.715 C189.15,197.133 189.551,199.853 186.97,204.241 C196.442,206.52 207.235,201.541 212.656,203.848 C218.499,206.344 223.378,207.3 228.125,208.256 C226.669,207.131 225.34,206.098 230.22,202.877 C237.575,198.025 240.394,204.74 247.116,203.285 C253.866,201.815 255.806,202.969 262.486,198.124 C269.166,193.279 271.226,195.27 281.351,194.433 C291.483,193.589 296.145,189.447 296.145,189.447 C296.145,189.447 296.145,189.447 300.834,187.345 L303.548,187.303 C303.548,187.303 312.97,184.441 322.442,184.969 C331.913,185.489 334.584,187.999 342.657,185.84 C344.667,185.299 346.397,184.842 347.874,184.477 C342.622,181.495 336.863,179.168 331.955,179.252 C327.666,179.322 310.72,179.252 304.231,176.137 C295.42,177.74 283.496,180.975 281.625,182.114 C257.001,197.146 235.795,191.789 205.181,193.666 z" fill="url(#Gradient_6)"/>
    <path d="M278.735,170.449 C259.835,172.559 229.974,177.107 217.43,181.818 C204.886,186.543 179.883,190.481 173.639,195.094 C168.528,198.869 156.3,213.094 152.082,218.064 C151.842,219.45 151.589,220.856 151.336,222.27 C148.861,235.84 150.83,232.416 146.259,241.957 C141.668,251.498 142.934,245.402 139.65,251.533 C138.455,253.77 138.813,257.151 139.671,260.702 C140.719,261.455 141.528,261.975 142.308,262.312 C150.478,265.771 154.043,263.908 162.129,261.975 C167.543,260.674 166.087,259.092 170.75,257.264 C169.673,244.945 175.313,244.059 173.942,240.143 C172.514,236.121 175.235,236.754 175.087,227.297 C174.926,217.818 176.297,219.154 176.227,215.098 C176.227,215.098 179.447,207.244 182.751,202.336 C174.792,196.76 190.5,194.566 205.181,193.666 C235.795,191.789 257.001,197.146 281.625,182.114 C283.496,180.975 295.42,177.74 304.231,176.137 C297.094,172.699 288.622,169.338 278.735,170.449 z" fill="url(#Gradient_7)"/>
    <path d="M546.704,393.986 C537.563,395.983 509.543,379.959 498.083,381.506 C479.45,384.002 463.749,372.26 458.658,368.625 C453.61,365.046 445.988,356.32 432.657,350.133 C411.598,340.345 382.496,332.217 374.1,325.186 C366.084,318.457 363.089,317.515 360.165,316.115 C360.024,316.137 359.897,316.15 359.756,316.179 C357.38,316.559 355.102,317.859 353.077,319.448 C372.342,328.139 394.533,335.564 405.938,342.687 C421.42,352.348 450.642,374.397 463.32,378.693 C476.025,382.997 474.225,383.925 482.368,385.584 C490.509,387.258 496.922,393.459 510.436,393.241 C523.958,393.023 523.022,391.23 532.993,394.676 C542.97,398.114 540.277,399.049 555.563,396.096 C569.028,393.494 570.483,387.447 566.075,382.49 C565.856,382.617 565.653,382.723 565.42,382.863 C549.165,393.727 551.246,393.002 546.704,393.986 z" fill="url(#Gradient_8)"/>
    <path d="M137.47,242.779 C137.47,242.779 140.122,240.03 136.043,237.394 C131.986,234.792 126.811,244.066 138.173,227.128 C137.302,227.479 136.395,227.824 135.431,228.176 C120.131,233.555 107.637,236.747 107.714,242.146 C107.75,244.326 119.962,247.406 126.811,251.744 C129.989,253.77 132.458,255.45 134.426,256.856 C133.603,249.628 135.868,250.957 137.47,242.779 z" fill="url(#Gradient_9)"/>
    <path d="M355.911,313.478 C354.863,312.67 352.423,312.234 352.226,310.223 C350.672,294.516 339.056,289.172 316.177,268.816 C305.981,259.746 299.991,256.16 294.95,253.467 C294.788,253.523 294.661,253.572 294.506,253.629 C287.124,256.455 291.223,258.417 291.989,264.492 C292.763,270.553 291.455,272.613 288.833,278.062 C288.129,279.553 289.423,287.498 288.551,288.518 C289.922,289.08 291.483,289.734 293.297,290.451 C310.552,297.384 313.231,296.442 334.184,309.611 C339.014,312.663 344.632,315.546 350.595,318.309 C352.795,316.847 354.75,314.801 355.911,313.478" fill="#C85D46"/>
    <path d="M291.335,251.59 C286.575,249.072 281.942,246.352 274.214,238.863 C274.214,238.863 259.653,221.123 244.584,213.459 C242.405,212.355 240.366,211.519 238.397,210.844 C239.381,212.397 240.704,215.133 239.283,219.633 C236.063,229.828 240.605,224.175 236.048,234.398 C231.478,244.607 236.14,240.48 238.946,246.52 C240.493,249.811 240.605,253.952 239.986,258.023 C261.453,267.74 263.091,267.67 270.263,272.283 C275.192,275.461 275.522,276.417 278.756,278.189 C281.14,274.631 283.228,270.328 283.889,265.301 C284.825,258.199 287.883,254.051 291.335,251.59 z" fill="url(#Gradient_10)"/>
    <path d="M227.878,231.825 C227.063,223.043 229.84,227.064 233.067,218.227 C236.309,209.374 229.707,213.023 229.665,210.33 C229.65,209.416 228.876,208.818 228.125,208.256 C223.378,207.3 218.499,206.344 212.656,203.848 C207.235,201.541 196.442,206.52 186.97,204.241 C186.141,205.647 185.009,207.223 183.567,208.889 C177.598,215.744 184.397,219.014 183.173,225.799 C181.922,232.584 179.286,236.001 180.031,240.727 C180.685,244.783 181.29,247.35 178.161,255.33 C179.728,255.035 181.536,254.726 183.645,254.416 C203.825,251.449 199.022,242.027 227.47,252.834 C227.709,250.676 228.131,248.391 228.792,246.007 C231.985,234.455 228.694,240.6 227.878,231.825 z" fill="url(#Gradient_11)"/>
    <path d="M322.442,184.969 C312.97,184.441 303.548,187.303 303.548,187.303 L300.834,187.345 C296.145,189.447 296.145,189.447 296.145,189.447 C296.145,189.447 291.483,193.589 281.351,194.433 C271.226,195.27 269.166,193.279 262.486,198.124 C255.806,202.969 253.866,201.815 247.116,203.285 C240.394,204.74 237.575,198.025 230.22,202.877 C225.34,206.098 226.669,207.131 228.125,208.256 C231.506,208.945 234.833,209.613 238.397,210.844 C237.153,208.853 236.45,208.783 242.497,209.437 C253.325,210.611 251.194,210.478 264.61,204.178 C278.032,197.871 289.571,201.049 300.989,196.134 C312.408,191.212 311.009,193.125 327.891,192.168 C344.766,191.205 344.78,191.895 356.255,190.348 C356.381,190.326 356.515,190.312 356.649,190.291 C354.118,188.357 351.094,186.305 347.874,184.477 C346.397,184.842 344.667,185.299 342.657,185.84 C334.584,187.999 331.913,185.489 322.442,184.969 z" fill="url(#Gradient_12)"/>
    <path d="M238.946,246.52 C236.14,240.48 231.478,244.607 236.048,234.398 C240.605,224.175 236.063,229.828 239.283,219.633 C240.704,215.133 239.381,212.397 238.397,210.844 C234.833,209.613 231.506,208.945 228.125,208.256 C228.876,208.818 229.65,209.416 229.665,210.33 C229.707,213.023 236.309,209.374 233.067,218.227 C229.84,227.064 227.063,223.043 227.878,231.825 C228.694,240.6 231.985,234.455 228.792,246.007 C228.131,248.391 227.709,250.676 227.47,252.834 C228.173,253.102 228.856,253.361 229.594,253.65 C233.468,255.176 236.907,256.631 239.986,258.023 C240.605,253.952 240.493,249.811 238.946,246.52 z" fill="url(#Gradient_13)"/>
    <path d="M186.97,204.241 C189.551,199.853 189.15,197.133 186.106,198.715 C185.051,199.249 183.891,200.62 182.751,202.336 C182.962,202.49 183.202,202.652 183.455,202.807 C184.559,203.496 185.733,203.953 186.97,204.241" fill="#F3BEAE"/>
    <path d="M180.031,240.727 C179.286,236.001 181.922,232.584 183.173,225.799 C184.397,219.014 177.598,215.744 183.567,208.889 C185.009,207.223 186.141,205.647 186.97,204.241 C185.733,203.953 184.559,203.496 183.455,202.807 C183.202,202.652 182.962,202.49 182.751,202.336 C179.447,207.244 176.227,215.098 176.227,215.098 C176.297,219.154 174.926,217.818 175.087,227.297 C175.235,236.754 172.514,236.121 173.942,240.143 C175.313,244.059 169.673,244.945 170.75,257.264 C172.353,256.652 174.645,255.998 178.161,255.33 C181.29,247.35 180.685,244.783 180.031,240.727 z" fill="url(#Gradient_14)"/>
    <path d="M139.65,251.533 C142.934,245.402 141.668,251.498 146.259,241.957 C150.83,232.416 148.861,235.84 151.336,222.27 C151.589,220.856 151.842,219.45 152.082,218.064 C151.161,219.154 150.619,219.809 150.619,219.809 C150.619,219.809 146.92,223.584 138.173,227.128 C126.811,244.066 131.986,234.792 136.043,237.394 C140.122,240.03 137.47,242.779 137.47,242.779 C135.868,250.957 133.603,249.628 134.426,256.856 C136.767,258.522 138.399,259.781 139.671,260.702 C138.813,257.151 138.455,253.77 139.65,251.533 z" fill="url(#Gradient_15)"/>
    <path d="M421.111,223.9 C410.297,224.744 410.199,221.58 402.071,220.371 C393.928,219.154 415.486,230.51 418.875,231.129 C422.25,231.74 418.791,226.396 422.25,231.74 C425.731,237.098 415.205,234.82 404.391,234.996 C393.577,235.172 386.827,235.959 373.953,234.152 C361.079,232.324 360.446,235.045 357.106,237.809 C353.78,240.564 349.772,244.01 345.778,247.455 C341.778,250.9 348.619,255.527 334.36,251.702 C320.086,247.877 313.913,241.148 311.255,243.891 C308.597,246.633 305.897,247.35 300.511,248.123 C297.945,248.496 294.478,249.34 291.335,251.59 C292.517,252.201 293.705,252.806 294.95,253.467 C302.051,250.809 305.96,250.739 305.96,250.739 C313.442,253.994 307.929,247.322 320.122,248.475 C332.313,249.621 336.54,261.124 342.53,255.611 C348.528,250.113 354.645,239.369 374.916,238.35 C395.166,237.352 402.696,240.375 414.178,239.51 C425.653,238.645 431.497,239.278 449.18,245.747 C452.78,247.062 466.118,258.164 468.755,258.973 C467.672,258.072 466.231,256.947 464.17,255.506 C459.15,251.977 439.203,233.217 429.458,224.779 C427.594,223.992 425.344,223.57 421.111,223.9 z" fill="url(#Gradient_16)"/>
    <path d="M291.989,264.492 C291.223,258.417 287.124,256.455 294.506,253.629 C294.661,253.572 294.788,253.523 294.95,253.467 C293.705,252.806 292.517,252.201 291.335,251.59 C287.883,254.051 284.825,258.199 283.889,265.301 C283.228,270.328 281.14,274.631 278.756,278.189 C280.325,279.061 284.726,286.922 288.551,288.518 C289.423,287.498 288.129,279.553 288.833,278.062 C291.455,272.613 292.763,270.553 291.989,264.492" fill="#D5948E"/>
    <path d="M497.78,322.689 C489.553,316.066 486.178,316.791 482.142,316.861 C478.079,316.931 468.622,317.086 466.547,314.414 C464.473,311.749 452.077,297.757 462.863,296.231 C473.649,294.691 461.907,288.271 461.907,288.271 L459.129,284.264 C459.129,284.264 454.278,276.916 461.731,277.465 C468.087,277.936 465.141,270.504 460.43,271.249 C452.309,272.55 454.418,269.098 447.577,265.153 C440.756,261.201 447.071,274.624 447.071,274.624 C450.53,279.975 446.522,282.745 447.915,284.756 C449.292,286.76 447.942,286.106 453.392,289.396 C458.855,292.687 455.663,304.43 455.663,304.43 C459.923,316.523 459.129,315.223 454.327,311.918 C449.545,308.613 446.747,302.573 442.036,304.008 C437.333,305.428 444.089,306.004 433.29,306.855 C422.497,307.713 407.59,305.92 402.225,309.394 C396.881,312.867 388.747,311.65 388.747,311.65 C384,310.371 366.458,312.691 366.458,312.691 L356.993,312.171 C356.993,312.171 356.579,312.705 355.911,313.478 C357.598,314.801 358.871,315.504 360.165,316.115 C368.728,314.73 354.828,316.256 385.42,315.082 C416.499,313.894 410.993,307.221 431.363,312.973 C451.747,318.717 439.533,315.539 455.192,323.393 C470.878,331.254 481.7,331.064 471.603,333.939 C461.499,336.809 472.327,337.308 454.137,340.992 C435.947,344.662 438.071,350.041 441.431,348.635 C444.764,347.228 446.803,347.193 454.186,344.367 C461.59,341.533 477.052,336.548 487.325,345.176 C497.625,353.789 476.806,345.267 480.258,349.936 C483.717,354.619 487.556,358.008 474.774,362.275 C461.991,366.551 469.458,367.781 474.183,367.689 C478.922,367.619 475.906,362.311 486.038,361.46 C496.163,360.623 487.697,352.298 492.366,348.846 C497.048,345.387 491.916,345.773 489.806,340.401 C487.683,335.029 479.85,329.58 487.226,326.086 C494.609,322.584 500.663,334.137 510.774,331.936 C512.672,331.535 514.261,330.965 515.618,330.305 C515.077,329.475 510.106,324.834 509.473,323.695 C508.06,321.192 506.801,318.267 505.584,315.082 C505.079,315.145 504.586,315.244 504.15,315.447 C499.454,317.55 506,329.32 497.78,322.689 z" fill="url(#Gradient_17)"/>
    <path d="M360.165,316.115 C358.871,315.504 357.598,314.801 355.911,313.478 C354.75,314.801 352.795,316.847 350.595,318.309 C351.411,318.682 352.233,319.068 353.077,319.448 C355.102,317.859 357.38,316.559 359.756,316.179 C359.897,316.15 360.024,316.137 360.165,316.115" fill="#D5948E"/>
    <path d="M434.485,306.757 C434.119,306.785 433.718,306.82 433.29,306.855 C422.497,307.713 407.59,305.92 402.225,309.394 C396.881,312.867 388.747,311.65 388.747,311.65 C384,310.371 366.458,312.691 366.458,312.691 L356.993,312.171 C356.993,312.171 356.579,312.705 355.911,313.478 C357.598,314.801 358.871,315.504 360.165,316.115 C368.728,314.73 354.828,316.256 385.42,315.082 C416.499,313.894 410.993,307.221 431.363,312.973 C435.828,314.231 438.731,315.061 440.708,315.68 C438.717,312.389 437.262,309.218 434.485,306.757" fill="#CC9C93"/>
    <path d="M302.958,262.214 C284.614,262.945 289.008,265.153 276.528,270.293 C264.047,275.426 251.567,271.748 236.878,278.372 C222.197,284.967 226.606,282.035 214.856,280.565 C208.29,279.75 209.07,279.834 210.384,282.014 C212.508,282.78 214.723,283.736 217.064,284.967 C233.286,293.566 248.874,323.639 248.874,323.639 C257.142,331.9 262.114,334.945 267.247,337.758 C270.685,335.374 274.467,334.509 277.266,334.158 C283.137,333.434 286.083,332.695 289.008,329.756 C291.947,326.824 296.356,326.824 311.775,331.226 C327.188,335.627 319.84,330.494 324.249,326.824 C328.65,323.146 333.059,319.477 336.736,316.537 C340.399,313.605 341.124,310.666 355.087,312.867 C369.031,315.082 376.372,314.344 388.114,314.344 C399.863,314.344 392.522,314.344 388.852,308.473 C385.181,302.587 388.852,308.473 385.181,307.734 C381.504,306.996 382.981,300.394 391.791,301.863 C400.608,303.332 394.723,303.332 406.472,302.587 C411.071,302.299 413.532,302.812 415.536,303.705 C405.165,294.445 394.702,285.452 388.852,282.527 C377.103,276.656 370.254,277.626 362.421,271.748 C354.595,265.884 343.837,268.816 336.975,262.945 C336.146,262.242 335.217,261.469 334.219,260.695 C334.079,260.709 333.938,260.73 333.797,260.744 C321.317,262.214 321.317,261.482 302.958,262.214 z" fill="url(#Gradient_18)"/>
    <path d="M391.045,321.691 C378.572,322.408 365.353,323.885 343.345,324.616 C321.317,325.354 327.188,329.756 320.579,335.627 C313.969,341.498 311.775,336.365 298.556,334.889 C285.337,333.434 291.223,340.767 283.137,337.097 C283.137,337.097 278.897,337.103 271.114,339.874 C276.563,342.876 282.997,346.877 293.902,356.918 C318.371,379.432 320.333,385.303 330.126,395.098 C331.673,396.645 332.954,397.805 334.064,398.697 C334.817,397.875 335.259,397.291 335.259,397.291 L345.54,398.029 C345.54,398.029 364.629,395.836 369.769,397.291 C369.769,397.291 378.572,398.768 384.45,395.098 C390.329,391.42 406.472,393.628 418.228,392.896 C429.957,392.158 422.616,391.42 427.763,389.965 C432.903,388.488 435.849,395.098 440.967,398.768 C446.122,402.431 440.25,390.689 435.849,377.484 C435.849,377.484 441.72,370.875 435.849,367.197 C429.957,363.527 431.447,364.266 429.957,362.064 C428.501,359.85 432.903,356.918 429.239,351.047 C429.239,351.047 422.616,336.365 429.957,340.767 C437.304,345.176 439.477,355.982 448.322,354.717 C453.469,353.978 467.686,364.884 460.795,364.266 C452.731,363.527 457.864,371.613 457.864,371.613 L460.795,376.008 C460.795,376.008 462.272,380.416 450.523,381.879 C438.774,383.355 451.993,398.768 454.186,401.707 C456.394,404.639 466.673,404.639 471.083,404.639 C475.491,404.639 479.161,403.908 487.964,411.248 C496.774,418.596 494.574,409.771 499.72,407.578 C500.192,407.374 500.726,407.262 501.274,407.205 C497.59,396.996 494.292,384.248 487.718,372.576 C478.908,356.918 467.166,345.176 457.372,339.305 C449.602,334.636 451.079,334.291 446.634,330.417 C443.766,329.496 440.461,328.314 436.58,326.824 C417.483,319.477 403.533,320.953 391.045,321.691 z" fill="url(#Gradient_19)"/>
    <path d="M496.774,425.93 C488.696,429.6 482.086,420.059 484.301,425.93 C486.501,431.808 505.584,442.818 500.452,446.489 C495.305,450.159 499.72,450.891 488.696,451.629 C477.692,452.367 466.673,459.708 461.541,459.708 C456.394,459.708 448.322,458.238 462.272,453.822 C476.215,449.428 482.086,449.428 478.416,444.281 C474.759,439.148 487.226,445.02 476.215,435.471 C465.211,425.93 448.322,431.069 440.25,434.016 C432.165,436.947 429.957,436.947 426.293,438.41 C422.616,439.88 420.422,434.016 440.25,430.338 C460.079,426.668 448.322,425.93 459.333,422.99 C470.344,420.059 458.602,420.059 441.72,411.248 C424.837,402.431 438.056,406.108 416.006,399.506 C393.999,392.896 399.863,400.237 366.084,400.969 C332.841,401.686 347.972,400.279 338.634,401.644 C341.798,403.219 345.033,404.287 353.618,411.74 C362.611,419.531 394.055,428.883 416.751,439.88 C431.117,446.848 439.251,456.445 444.652,460.432 C450.129,464.475 466.969,477.504 487.226,475.12 C499.72,473.65 519.844,487.396 529.814,485.393 C534.764,484.408 550.134,492.494 567.994,480.998 C568.233,480.844 568.465,480.738 568.697,480.604 C568.064,479.873 567.178,479.114 566.04,478.298 C556.251,471.457 548.405,469.488 541.556,457.746 C534.715,446.004 529.772,437.25 522.966,432.293 C513.431,425.367 511.561,426.844 507.195,419.841 C505.718,420.529 503.967,421.113 501.915,421.535 C490.889,423.728 504.853,422.259 496.774,425.93 z" fill="url(#Gradient_20)"/>
    <path d="M172.514,265.884 C156.575,266.602 139.481,268.697 148.003,274.898 C149.297,273.049 150.591,271.594 151.723,271.031 C155.063,269.357 155.45,272.325 152.56,277.05 C162.797,279.687 176.705,271.361 182.555,273.963 C188.869,276.762 194.149,277.9 199.275,279.025 C197.714,277.781 196.294,276.635 201.645,273.225 C209.709,268.085 212.656,275.426 219.997,273.963 C227.337,272.486 227.337,276.895 234.685,271.748 C242.025,266.615 244.226,268.816 255.244,268.085 C266.241,267.353 271.388,262.945 271.388,262.945 C271.388,262.945 271.388,262.945 276.528,260.744 L279.459,260.744 C279.459,260.744 289.747,257.812 300.033,258.551 C310.306,259.275 310.306,257.812 319.116,255.611 C321.295,255.056 323.18,254.592 324.797,254.227 C319.137,250.887 312.942,248.264 307.606,248.264 C302.937,248.264 297.165,244.713 290.168,241.197 C280.571,242.779 267.563,246.077 265.517,247.293 C238.509,263.17 205.829,264.394 172.514,265.884 z" fill="url(#Gradient_21)"/>
    <path d="M262.571,234.553 C242.025,236.521 199.922,239.461 186.225,244.348 C172.514,249.241 145.121,261.968 138.265,266.861 C132.633,270.891 119.105,286.092 114.436,291.429 C114.148,292.934 113.853,294.452 113.543,295.992 C110.611,310.666 112.805,306.996 107.672,317.275 C102.532,327.548 104.001,320.953 100.332,327.548 C98.995,329.953 99.319,333.645 100.191,337.512 C101.316,338.348 102.188,338.932 103.024,339.305 C111.834,343.214 115.751,341.252 124.554,339.305 C130.46,337.982 128.907,336.239 134.011,334.326 C133.055,320.932 139.2,320.074 137.773,315.806 C136.303,311.404 139.243,312.136 139.243,301.863 C139.243,291.576 140.712,293.053 140.712,288.645 C140.712,288.645 144.34,280.172 148.003,274.898 C139.481,268.697 156.575,266.602 172.514,265.884 C205.829,264.394 238.509,263.17 265.517,247.293 C267.563,246.077 280.571,242.779 290.168,241.197 C282.483,237.337 273.335,233.533 262.571,234.553 z" fill="url(#Gradient_22)"/>
    <path d="M529.814,485.393 C519.844,487.396 499.72,473.65 487.226,475.12 C466.969,477.504 450.129,464.475 444.652,460.432 C439.251,456.445 431.117,446.848 416.751,439.88 C394.055,428.883 362.611,419.531 353.618,411.74 C345.033,404.287 341.798,403.219 338.634,401.644 C338.494,401.658 338.353,401.679 338.199,401.707 C335.597,402.072 333.108,403.437 330.886,405.131 C351.657,414.919 375.619,423.377 387.881,431.315 C404.517,442.08 435.849,466.549 449.539,471.457 C463.243,476.344 461.288,477.328 470.098,479.275 C478.908,481.244 485.756,488.093 500.452,488.093 C515.133,488.093 514.149,486.131 524.914,490.055 C535.678,493.964 532.747,494.941 549.389,492.002 C564.071,489.422 573.408,486.061 568.697,480.604 C568.465,480.738 568.233,480.844 567.994,480.998 C550.134,492.494 534.764,484.408 529.814,485.393 z" fill="url(#Gradient_23)"/>
    <path d="M98.123,318.014 C98.123,318.014 101.063,315.082 96.647,312.136 C92.309,309.239 86.522,319.23 99.157,301.026 C98.208,301.385 97.231,301.758 96.169,302.109 C79.462,307.678 65.829,310.912 65.829,316.783 C65.829,319.16 79.027,322.718 86.374,327.548 C89.798,329.798 92.45,331.683 94.559,333.236 C93.792,325.383 96.225,326.859 98.123,318.014 z" fill="url(#Gradient_24)"/>
    <path d="M334.064,398.697 C332.954,397.805 331.673,396.645 330.126,395.098 C320.333,385.303 318.371,379.432 293.902,356.918 C282.997,346.877 276.563,342.876 271.114,339.874 C270.966,339.923 270.811,339.973 270.657,340.043 C262.571,342.975 266.986,345.176 267.717,351.785 C268.462,358.395 266.986,360.588 264.047,366.473 C263.239,368.076 262.325,369.293 261.361,370.383 C262.837,371.029 264.532,371.754 266.494,372.576 C285.084,380.416 288.031,379.432 310.538,394.12 C315.741,397.509 321.788,400.736 328.208,403.852 C330.64,402.305 332.798,400.125 334.064,398.697 z" fill="url(#Gradient_25)"/>
    <path d="M267.247,337.758 C262.114,334.945 257.142,331.9 248.874,323.639 C248.874,323.639 233.286,293.566 217.064,284.967 C214.723,283.736 212.508,282.78 210.384,282.014 C211.418,283.723 212.803,286.718 211.186,291.576 C207.516,302.587 210.455,299.662 205.322,310.666 C200.175,321.691 205.322,317.275 208.254,323.885 C209.85,327.499 209.92,331.992 209.175,336.4 C232.322,347.334 236.274,354.717 243.98,359.85 C249.282,363.394 249.626,364.448 253.114,366.424 C255.757,362.592 258.084,357.973 258.907,352.523 C260.067,344.824 263.45,340.366 267.247,337.758 z" fill="url(#Gradient_26)"/>
    <path d="M196.491,307.734 C195.774,298.186 198.712,302.587 202.383,293.053 C206.046,283.504 200.907,284.236 200.907,281.304 C200.907,280.312 200.07,279.658 199.275,279.025 C194.149,277.9 188.869,276.762 182.555,273.963 C176.705,271.361 162.797,279.687 152.56,277.05 C151.631,278.562 150.394,280.256 148.791,282.035 C142.181,289.383 149.522,293.053 148.045,300.394 C146.583,307.734 143.658,311.404 144.375,316.537 C145.008,320.953 145.626,323.766 142.069,332.379 C143.785,332.069 145.747,331.781 148.045,331.472 C170.032,328.596 164.977,318.288 195.668,330.543 C195.985,328.209 196.477,325.734 197.243,323.146 C200.907,310.666 197.243,317.275 196.491,307.734 z" fill="url(#Gradient_27)"/>
    <path d="M300.033,258.551 C289.747,257.812 279.459,260.744 279.459,260.744 L276.528,260.744 C271.388,262.945 271.388,262.945 271.388,262.945 C271.388,262.945 266.241,267.353 255.244,268.085 C244.226,268.816 242.025,266.615 234.685,271.748 C227.337,276.895 227.337,272.486 219.997,273.963 C212.656,275.426 209.709,268.085 201.645,273.225 C196.294,276.635 197.714,277.781 199.275,279.025 C202.946,279.827 206.539,280.622 210.384,282.014 C209.07,279.834 208.29,279.75 214.856,280.565 C226.606,282.035 222.197,284.967 236.878,278.372 C251.567,271.748 264.047,275.426 276.528,270.293 C289.008,265.153 284.614,262.945 302.958,262.214 C321.317,261.482 321.317,262.214 333.797,260.744 C333.938,260.73 334.079,260.709 334.219,260.695 C331.512,258.558 328.256,256.266 324.797,254.227 C323.18,254.592 321.295,255.056 319.116,255.611 C310.306,257.812 310.306,259.275 300.033,258.551 z" fill="url(#Gradient_28)"/>
    <path d="M208.254,323.885 C205.322,317.275 200.175,321.691 205.322,310.666 C210.455,299.662 207.516,302.587 211.186,291.576 C212.803,286.718 211.418,283.723 210.384,282.014 C206.539,280.622 202.946,279.827 199.275,279.025 C200.07,279.658 200.907,280.312 200.907,281.304 C200.907,284.236 206.046,283.504 202.383,293.053 C198.712,302.587 195.774,298.186 196.491,307.734 C197.243,317.275 200.907,310.666 197.243,323.146 C196.477,325.734 195.985,328.209 195.668,330.543 C196.42,330.839 197.18,331.148 197.967,331.472 C202.158,333.187 205.856,334.84 209.175,336.4 C209.92,331.992 209.85,327.499 208.254,323.885 z" fill="url(#Gradient_29)"/>
    <path d="M152.56,277.05 C155.45,272.325 155.063,269.357 151.723,271.031 C150.591,271.594 149.297,273.049 148.003,274.898 C148.25,275.074 148.496,275.25 148.791,275.426 C149.965,276.199 151.231,276.705 152.56,277.05 z" fill="url(#Gradient_30)"/>
    <path d="M144.375,316.537 C143.658,311.404 146.583,307.734 148.045,300.394 C149.522,293.053 142.181,289.383 148.791,282.035 C150.394,280.256 151.631,278.562 152.56,277.05 C151.231,276.705 149.965,276.199 148.791,275.426 C148.496,275.25 148.25,275.074 148.003,274.898 C144.34,280.172 140.712,288.645 140.712,288.645 C140.712,293.053 139.243,291.576 139.243,301.863 C139.243,312.136 136.303,311.404 137.773,315.806 C139.2,320.074 133.055,320.932 134.011,334.326 C135.741,333.693 138.251,333.025 142.069,332.379 C145.626,323.766 145.008,320.953 144.375,316.537 z" fill="url(#Gradient_31)"/>
    <path d="M100.332,327.548 C104.001,320.953 102.532,327.548 107.672,317.275 C112.805,306.996 110.611,310.666 113.543,295.992 C113.853,294.452 114.148,292.934 114.436,291.429 C113.423,292.596 112.805,293.299 112.805,293.299 C112.805,293.299 108.741,297.342 99.157,301.026 C86.522,319.23 92.309,309.239 96.647,312.136 C101.063,315.082 98.123,318.014 98.123,318.014 C96.225,326.859 93.792,325.383 94.559,333.236 C97.069,335.093 98.827,336.492 100.191,337.512 C99.319,333.645 98.995,329.953 100.332,327.548 z" fill="url(#Gradient_32)"/>
    <path d="M406.472,302.587 C394.723,303.332 400.608,303.332 391.791,301.863 C382.981,300.394 381.504,306.996 385.181,307.734 C388.852,308.473 385.181,302.587 388.852,308.473 C392.522,314.344 399.863,314.344 388.114,314.344 C376.372,314.344 369.031,315.082 355.087,312.867 C341.124,310.666 340.399,313.605 336.736,316.537 C333.059,319.477 328.65,323.146 324.249,326.824 C319.84,330.494 327.188,335.627 311.775,331.226 C296.356,326.824 291.947,326.824 289.008,329.756 C286.083,332.695 283.137,333.434 277.266,334.158 C274.467,334.509 270.685,335.374 267.247,337.758 C268.491,338.439 269.785,339.129 271.114,339.874 C278.897,337.103 283.137,337.097 283.137,337.097 C291.223,340.767 285.337,333.434 298.556,334.889 C311.775,336.365 313.969,341.498 320.579,335.627 C327.188,329.756 321.317,325.354 343.345,324.616 C365.353,323.885 378.572,322.408 391.045,321.691 C403.533,320.953 417.483,319.477 436.58,326.824 C440.461,328.314 443.766,329.496 446.634,330.417 C445.467,329.426 443.92,328.181 441.72,326.578 C436.306,322.641 425.962,313.043 415.536,303.705 C413.532,302.812 411.071,302.299 406.472,302.587 z" fill="url(#Gradient_33)"/>
    <path d="M267.717,351.785 C266.986,345.176 262.571,342.975 270.657,340.043 C270.811,339.973 270.966,339.923 271.114,339.874 C269.785,339.129 268.491,338.439 267.247,337.758 C263.45,340.366 260.067,344.824 258.907,352.523 C258.084,357.973 255.757,362.592 253.114,366.424 C254.801,367.401 257.241,368.59 261.361,370.383 C262.325,369.293 263.239,368.076 264.047,366.473 C266.986,360.588 268.462,358.395 267.717,351.785 z" fill="url(#Gradient_34)"/>
    <path d="M487.964,411.248 C479.161,403.908 475.491,404.639 471.083,404.639 C466.673,404.639 456.394,404.639 454.186,401.707 C451.993,398.768 438.774,383.355 450.523,381.879 C462.272,380.416 460.795,376.008 460.795,376.008 L457.864,371.613 C457.864,371.613 452.731,363.527 460.795,364.266 C467.686,364.884 453.469,353.978 448.322,354.717 C439.477,355.982 437.304,345.176 429.957,340.767 C422.616,336.365 429.239,351.047 429.239,351.047 C432.903,356.918 428.501,359.85 429.957,362.064 C431.447,364.266 429.957,363.527 435.849,367.197 C441.72,370.875 435.849,377.484 435.849,377.484 C440.25,390.689 446.122,402.431 440.967,398.768 C435.849,395.098 432.903,388.488 427.763,389.965 C422.616,391.42 429.957,392.158 418.228,392.896 C406.472,393.628 390.329,391.42 384.45,395.098 C378.572,398.768 369.769,397.291 369.769,397.291 C364.629,395.836 345.54,398.029 345.54,398.029 L335.259,397.291 C335.259,397.291 334.817,397.875 334.064,398.697 C335.872,400.16 337.25,400.947 338.634,401.644 C347.972,400.279 332.841,401.686 366.084,400.969 C399.863,400.237 393.999,392.896 416.006,399.506 C438.056,406.108 424.837,402.431 441.72,411.248 C458.602,420.059 470.344,420.059 459.333,422.99 C448.322,425.93 460.079,426.668 440.25,430.338 C420.422,434.016 422.616,439.88 426.293,438.41 C429.957,436.947 432.165,436.947 440.25,434.016 C448.322,431.069 465.211,425.93 476.215,435.471 C487.226,445.02 474.759,439.148 478.416,444.281 C482.086,449.428 476.215,449.428 462.272,453.822 C448.322,458.238 456.394,459.708 461.541,459.708 C466.673,459.708 477.692,452.367 488.696,451.629 C499.72,450.891 495.305,450.159 500.452,446.489 C505.584,442.818 486.501,431.808 484.301,425.93 C482.086,420.059 488.696,429.6 496.774,425.93 C504.853,422.259 490.889,423.728 501.915,421.535 C503.967,421.113 505.718,420.529 507.195,419.841 C506.632,418.934 506.028,417.879 505.345,416.627 C503.841,413.885 502.533,410.686 501.274,407.205 C500.726,407.262 500.192,407.374 499.72,407.578 C494.574,409.771 496.774,418.596 487.964,411.248 z" fill="url(#Gradient_35)"/>
    <path d="M338.634,401.644 C337.25,400.947 335.872,400.16 334.064,398.697 C332.798,400.125 330.64,402.305 328.208,403.852 C329.086,404.28 329.986,404.702 330.886,405.131 C333.108,403.437 335.597,402.072 338.199,401.707 C338.353,401.679 338.494,401.658 338.634,401.644 z" fill="url(#Gradient_36)"/>
  </g>
</svg>
