<?xml version="1.0" encoding="UTF-8"?>
<!DOCTYPE svg PUBLIC "-//W3C//DTD SVG 1.1//EN" "http://www.w3.org/Graphics/SVG/1.1/DTD/svg11.dtd">
<svg version="1.1" xmlns="http://www.w3.org/2000/svg" xmlns:xlink="http://www.w3.org/1999/xlink" x="0" y="0" width="624" height="624" viewBox="0, 0, 624, 624">
  <defs>
    <linearGradient id="Gradient_1" gradientUnits="userSpaceOnUse" x1="313.761" y1="355.144" x2="171.601" y2="554.609">
      <stop offset="0" stop-color="#D2BFAD"/>
      <stop offset="0.481" stop-color="#CAC2BB"/>
      <stop offset="1" stop-color="#CAC2BB"/>
    </linearGradient>
    <linearGradient id="Gradient_2" gradientUnits="userSpaceOnUse" x1="182.526" y1="389.274" x2="159.339" y2="421.809">
      <stop offset="0" stop-color="#D2BFAD"/>
      <stop offset="0.481" stop-color="#CAC2BB"/>
      <stop offset="1" stop-color="#CAC2BB"/>
    </linearGradient>
    <linearGradient id="Gradient_3" gradientUnits="userSpaceOnUse" x1="226.617" y1="400.465" x2="206.086" y2="429.272">
      <stop offset="0" stop-color="#D2BFAD"/>
      <stop offset="0.481" stop-color="#CAC2BB"/>
      <stop offset="1" stop-color="#CAC2BB"/>
    </linearGradient>
    <linearGradient id="Gradient_4" gradientUnits="userSpaceOnUse" x1="277.122" y1="436.317" x2="259.237" y2="461.412">
      <stop offset="0" stop-color="#D2BFAD"/>
      <stop offset="0.481" stop-color="#CAC2BB"/>
      <stop offset="1" stop-color="#CAC2BB"/>
    </linearGradient>
    <linearGradient id="Gradient_5" gradientUnits="userSpaceOnUse" x1="314.939" y1="439.436" x2="296.715" y2="465.007">
      <stop offset="0" stop-color="#D2BFAD"/>
      <stop offset="0.481" stop-color="#CAC2BB"/>
      <stop offset="1" stop-color="#CAC2BB"/>
    </linearGradient>
    <linearGradient id="Gradient_6" gradientUnits="userSpaceOnUse" x1="85.795" y1="288.231" x2="569.457" y2="299.891">
      <stop offset="0" stop-color="#BAA698"/>
      <stop offset="0.286" stop-color="#ECD8CE"/>
      <stop offset="0.524" stop-color="#DCDFD3"/>
      <stop offset="1" stop-color="#B7AC9E"/>
    </linearGradient>
    <linearGradient id="Gradient_7" gradientUnits="userSpaceOnUse" x1="84.938" y1="326.4" x2="524.606" y2="336.999">
      <stop offset="0" stop-color="#6E6767"/>
      <stop offset="0.286" stop-color="#FCECEF"/>
      <stop offset="0.524" stop-color="#BDB7AE"/>
      <stop offset="1" stop-color="#C2BAB3"/>
    </linearGradient>
    <linearGradient id="Gradient_8" gradientUnits="userSpaceOnUse" x1="406.844" y1="421.097" x2="326.15" y2="252.526">
      <stop offset="0" stop-color="#B1A07E"/>
      <stop offset="0.617" stop-color="#AC9C90"/>
      <stop offset="0.704" stop-color="#DDD4C8"/>
      <stop offset="1" stop-color="#DDD4C8"/>
    </linearGradient>
    <linearGradient id="Gradient_9" gradientUnits="userSpaceOnUse" x1="51.732" y1="363.601" x2="553.641" y2="397.86">
      <stop offset="0" stop-color="#C7B3AC"/>
      <stop offset="0.286" stop-color="#FCECEF"/>
      <stop offset="0.524" stop-color="#EBF3F5"/>
      <stop offset="1" stop-color="#C2BAB3"/>
    </linearGradient>
    <linearGradient id="Gradient_10" gradientUnits="userSpaceOnUse" x1="49.103" y1="403.212" x2="505.336" y2="434.353">
      <stop offset="0" stop-color="#837A79"/>
      <stop offset="0.524" stop-color="#BDB7AE"/>
      <stop offset="1" stop-color="#C2BAB3"/>
    </linearGradient>
    <linearGradient id="Gradient_11" gradientUnits="userSpaceOnUse" x1="379.161" y1="516.33" x2="303.053" y2="337.52">
      <stop offset="0" stop-color="#B1A07E"/>
      <stop offset="0.617" stop-color="#AC9C90"/>
      <stop offset="0.704" stop-color="#DDD4C8"/>
      <stop offset="1" stop-color="#DDD4C8"/>
    </linearGradient>
    <linearGradient id="Gradient_12" gradientUnits="userSpaceOnUse" x1="316.85" y1="250.871" x2="327.038" y2="308.65">
      <stop offset="0" stop-color="#BAA698"/>
      <stop offset="0" stop-color="#ECD8CE"/>
      <stop offset="0" stop-color="#D5E079"/>
      <stop offset="1" stop-color="#44AF65"/>
    </linearGradient>
    <linearGradient id="Gradient_13" gradientUnits="userSpaceOnUse" x1="296.609" y1="243.793" x2="304.716" y2="289.769">
      <stop offset="0" stop-color="#BAA698"/>
      <stop offset="0" stop-color="#ECD8CE"/>
      <stop offset="0" stop-color="#D5E079"/>
      <stop offset="1" stop-color="#44AF65"/>
    </linearGradient>
    <linearGradient id="Gradient_14" gradientUnits="userSpaceOnUse" x1="315.749" y1="263.191" x2="321.519" y2="295.911">
      <stop offset="0" stop-color="#BAA698"/>
      <stop offset="0" stop-color="#ECD8CE"/>
      <stop offset="0" stop-color="#D5E079"/>
      <stop offset="1" stop-color="#44AF65"/>
    </linearGradient>
    <linearGradient id="Gradient_15" gradientUnits="userSpaceOnUse" x1="299.142" y1="258.695" x2="303.629" y2="284.139">
      <stop offset="0" stop-color="#BAA698"/>
      <stop offset="0" stop-color="#ECD8CE"/>
      <stop offset="0" stop-color="#D5E079"/>
      <stop offset="1" stop-color="#44AF65"/>
    </linearGradient>
    <linearGradient id="Gradient_16" gradientUnits="userSpaceOnUse" x1="311.452" y1="246.005" x2="319.135" y2="289.577">
      <stop offset="0" stop-color="#BAA698"/>
      <stop offset="0" stop-color="#ECD8CE"/>
      <stop offset="0" stop-color="#D5E079"/>
      <stop offset="1" stop-color="#44AF65"/>
    </linearGradient>
    <linearGradient id="Gradient_17" gradientUnits="userSpaceOnUse" x1="305.885" y1="236.284" x2="315.009" y2="288.027">
      <stop offset="0" stop-color="#BAA698"/>
      <stop offset="0" stop-color="#ECD8CE"/>
      <stop offset="0" stop-color="#D5E079"/>
      <stop offset="1" stop-color="#44AF65"/>
    </linearGradient>
    <linearGradient id="Gradient_18" gradientUnits="userSpaceOnUse" x1="309.286" y1="253.717" x2="314.091" y2="280.967">
      <stop offset="0" stop-color="#BAA698"/>
      <stop offset="0" stop-color="#ECD8CE"/>
      <stop offset="0" stop-color="#D5E079"/>
      <stop offset="1" stop-color="#44AF65"/>
    </linearGradient>
  </defs>
  <g id="Layer_1">
    <path d="M66.588,316.325 C68.065,319.595 79.315,323.603 84.94,322.541 C83.435,328.932 93.096,326.099 96.809,325.206 C96.844,333.938 97.357,335.31 104.599,336.491 C101.73,346.651 100.008,354.209 104.297,363.892 C105.724,367.083 108.938,365.213 110.309,364.468 C109.549,374.832 110.083,387.924 115.736,381.912 C112.122,388.114 109.549,402.232 116.566,401.072 C116.566,401.072 122.317,415.866 131.543,408.744 C133.969,418.018 134.707,416.33 139.333,414.052 C140.789,418.911 157.734,432.889 159.598,420.478 C160.596,423.123 160.708,433.521 172.008,434.471 C171.114,443.471 184.559,447.092 196.666,444.462 C198.48,450.108 214.934,451.381 220.945,444.631 C218.885,451.873 223.455,460.521 227.153,457.146 C226.43,465.704 230.754,473.509 242.622,471.42 C248.859,479.576 249.703,480.575 257.648,476.11 C259.055,484.674 271.57,487.613 279.375,483.985 C280.057,492.106 298.641,489.568 307.057,483.739 C304.898,493.639 313.125,497.239 322.934,491.283 C323.271,501.514 332.777,496.853 340.736,496.444 C340.736,496.444 323.004,509.621 361.184,505.557 C383.317,503.201 379.549,500.052 384.161,495.868 C384.161,495.868 391.854,505.163 403.969,497.71 C404.707,504.924 419.086,519.971 425.604,510.76 C432.938,513.481 436.432,513.559 441.023,507.505 C449.439,510.493 467.622,512.743 474.492,508.018 C478.268,505.416 475.455,504.038 473.416,501.689 C481.192,499.454 483.738,503.427 488.814,495.01 C382.643,451.803 284.177,397.845 195.442,324.924 C157.945,317.155 120.771,308.52 83.955,297.882 C77.157,305.286 73.676,308.978 66.588,316.325 z" fill="url(#Gradient_1)"/>
    <path d="M105.914,324.791 C104.016,330.936 104.93,336.821 112.137,331.843 C114.563,339.655 110.238,344.295 113.297,349.632 C119.133,346.384 116.369,345.526 123.752,346.173 C123.752,346.173 111.729,354.955 116.158,362.52 C121.98,372.498 126.445,360.882 126.445,360.882 C126.445,360.882 124.055,385.864 130.98,380.119 C137.885,374.368 139.474,367.569 139.924,364.454 C142.582,374.08 144.023,376.688 149.768,378.326 C141.492,382.173 134.637,383.537 134.707,391.088 C144.867,388.064 149.317,385.843 153.48,391.116 C149.367,399.631 146.463,406.978 151.455,411.662 C156.447,416.345 161.271,407.225 162.986,402.936 C162.185,415.416 164.716,426.821 173.133,424.1 C176.684,413.638 177.611,409.932 179.637,408.146 C179.637,408.146 182.203,420.746 184.594,422.096 C186.984,423.439 194.838,418.103 192.398,409.911 C192.398,409.911 194.064,415.431 197.721,419.881 C195.246,433.135 203.051,424.993 206.883,425.337 C204.387,435.856 207.325,439.702 216.27,438.634 C219.152,431.236 221.036,431.271 225.536,428.228 C225.958,434.45 222.422,443.752 229.418,445.7 C235.395,438.31 241.688,438.985 247.383,439.618 C247.313,448.935 244.641,455.775 247.875,460.114 C251.088,464.474 255.715,466.955 259.617,463.826 C262.942,469.395 261.621,471.884 267.653,475.548 C267.653,475.548 274.734,466.161 278.622,464.846 C278.622,464.846 274.502,456.845 275.684,452.485 C282.911,457.357 289.711,463.412 296.25,463.243 C288.072,470.274 286.23,475.885 288.986,478.304 C291.75,480.716 303.822,480.399 311.402,474.563 C318.996,468.713 323.004,461.717 323.004,461.717 C323.004,461.717 328.474,449.743 314.833,448.379 C309.012,447.81 304.758,441.91 298.872,438.971 C292.98,436.032 280.887,433.17 278.355,433.205 C275.824,433.24 266.789,417.209 261.867,422.813 C256.924,428.438 252.536,416.028 248.205,416.014 C243.888,415.993 235.957,411.584 232.244,412.779 C228.518,413.975 220.945,403.259 219.799,401.368 C218.674,399.47 209.744,396.15 202.066,394.041 C194.388,391.911 197.707,387.045 192.841,381.23 C190.887,378.903 187.427,378.826 185.578,382.798 C185.036,378.72 179.496,368.286 178.174,367.47 C175.98,366.106 173.59,372.23 173.59,372.23 C174.293,376.646 168.471,355.721 158.697,355.088 C161.65,359.04 161.51,360.291 161.13,363.385 C160.736,366.507 150.141,350.131 147.7,351.221 C149.247,344.415 144.621,340.935 141.633,341.975 C138.609,342.995 135.564,344.014 132.809,340.013 C131.719,338.424 126.902,338.706 126.797,333.699 C125.861,335.802 121.734,335.612 120.56,334.853 C118.289,333.397 119.182,329.86 118.83,329.326 C117.958,327.983 108.044,321.247 105.914,324.791" fill="#FFFFFE"/>
    <path d="M329.613,466.076 C329.81,468.256 327.278,473.635 330.633,477.509 C328.418,482.881 328.685,490.018 335.695,489.062 C342.727,488.099 346.924,486.01 350.602,482.691 C353.856,484.681 360.129,487.697 363.236,486.587 C356.543,490.116 348.422,493.99 351.143,496.943 C353.871,499.896 375.035,495.748 379.605,491.685 C384.864,495.045 388.711,495.361 392.458,495.08 C396.213,494.778 396.002,491.368 396.234,488.556 C399.771,491.382 401.227,491.881 406.83,492.338 C409.383,497.084 412.567,505.205 417.891,505.642 C423.255,506.091 421.863,500.614 421.863,498.751 C425.013,502.498 426.012,503.954 431.088,501.275 C436.15,498.596 437.697,494.384 432.283,489.947 C426.891,485.497 417.293,483.619 417.447,486.396 C413.461,485.216 405.114,478.521 394.314,478.768 C386.496,474.437 381.258,470.471 374.416,471.877 C369.325,468.818 362.484,464.614 355.664,465.654 C350.271,461.935 346.418,459.657 342.494,459.868 C338.578,460.072 328.614,454.65 329.613,466.076" fill="#FFFFFE"/>
    <path d="M169.16,385.653 C168.822,388.712 168.105,399.244 172.887,403.85 C177.653,408.47 174.939,411.732 177.422,416.225 C179.903,420.704 181.169,411.915 180.41,410.037 C179.637,408.153 180.494,398.857 182.224,395.546 C177.864,396.798 180.305,395.939 177.864,396.798 C175.418,397.662 169.934,387.158 170.65,384.76 C171.375,382.369 169.477,382.756 169.16,385.653 z" fill="url(#Gradient_2)"/>
    <path d="M213.935,418.932 C216.973,416.084 227.133,414.348 233.883,412.498 C240.633,410.635 230.262,405.678 230.262,405.678 C230.262,405.678 223.385,411.373 221.965,411.345 C220.523,411.317 209.063,410.572 204.492,407.52 C205.23,410.944 211.291,414.017 214.174,414.087 C212.627,415.986 213.935,418.932 213.935,418.932 z" fill="url(#Gradient_3)"/>
    <path d="M257.895,432.411 C260.833,434.822 263.814,437.228 265.854,440.588 C267.879,443.942 268.005,451.677 267.527,453.132 C267.049,454.58 268.919,448.287 273.588,454.025 C278.25,459.763 280.395,462.61 280.395,462.61 C280.395,462.61 274.01,451.114 273.869,444.842 C273.729,438.563 272.716,437.614 274.172,436.63 C275.627,435.645 272.224,437.635 268.778,437.67 C265.313,437.705 257.895,432.411 257.895,432.411 z" fill="url(#Gradient_4)"/>
    <path d="M307.922,439.724 C308.52,441.15 306.691,451.353 304.385,455.283 C302.106,459.221 314.109,449.638 317.309,445.665 C320.508,441.678 307.922,439.724 307.922,439.724 z" fill="url(#Gradient_5)"/>
    <path d="M87.091,245.345 C88.407,254.084 99.797,254.45 114.105,258.353 C128.435,262.276 130.15,253.536 145.591,257.53 C161.018,261.538 168.984,251.87 186,266.368 C203.016,280.853 204.211,281.267 233.215,293.67 C261.677,305.834 290.393,315.474 313.146,337.208 C343.521,366.212 394.828,367.829 423.832,395.771 C441.445,412.744 464.908,417.083 476.06,418.489 C487.197,419.895 523.408,396.622 523.289,391.545 C523.169,386.476 520.807,380.408 520.758,378.713 C520.723,377.025 524.133,381.47 531.867,381.99 C539.602,382.51 545.754,367.745 554.332,362.485 C562.91,357.233 564,357.338 560.52,352.009 C557.06,346.7 550.38,342.833 550.38,342.833 C550.38,342.833 559.148,344.337 563.599,346.37 C568.028,348.388 568.76,339.198 568.549,334.135 C568.359,329.073 559.605,321.022 552.68,316.065 C537.246,305.005 524.027,287.216 506.294,277.231 C443.224,241.751 388.43,188.813 314.481,176.052 C279.677,170.061 248.156,171.39 214.371,172.895 C194.346,173.802 174.68,180.889 154.942,185.424 C131.086,190.895 102.469,211.06 91.591,229.545 C87.282,236.872 86.438,241.02 87.091,245.345 z" fill="url(#Gradient_6)"/>
    <path d="M423.832,395.771 C441.445,412.744 464.908,417.083 476.06,418.489 C487.197,419.895 523.408,396.622 523.289,391.545 C523.254,390.736 523.184,389.9 523.057,389.063 C510.893,390.997 492.844,398.822 474.752,399.771 C451.781,400.974 432.536,380.661 411.809,371.457 C382.713,358.548 356.543,336.385 332.109,316.135 C310.221,297.995 284.016,283.201 256.403,276.465 C230.402,270.13 231.049,291.47 218.083,278.181 C205.104,264.913 200.168,258.409 183.434,256.876 C166.713,255.364 159.422,254.647 151.23,252.221 C143.018,249.788 137.856,249.029 129.152,253.592 C120.419,258.163 117.396,256.517 109.239,254.169 C104.016,252.657 93.841,248.811 86.93,243.749 C86.951,244.276 87,244.803 87.091,245.345 C88.407,254.091 99.797,254.45 114.105,258.353 C128.435,262.276 130.15,253.536 145.591,257.53 C161.018,261.538 168.984,251.87 186,266.368 C203.016,280.853 204.211,281.267 233.215,293.67 C261.677,305.834 290.393,315.474 313.146,337.208 C343.521,366.212 394.828,367.829 423.832,395.771 z" fill="url(#Gradient_7)"/>
    <path d="M128.041,227.591 C124.356,233.905 148.102,209.696 163.76,206.947 C194.528,201.554 226.781,196.513 257.754,196.442 C278.602,196.379 300.293,196.864 321.316,194.241 C301.854,186.845 278.791,193.194 258.935,193.018 C238.544,192.821 217.591,194.368 197.531,197.11 C178.266,199.747 153.325,201.399 139.348,215.181 C128.063,226.311 131.627,221.424 128.041,227.591 z M168.189,233.729 C168.471,234.573 219.961,226.1 246.025,225.608 C273.012,225.116 300.447,224.603 326.814,226.937 C356.684,229.581 389.625,232.548 418.502,241.534 C436.263,247.053 444.996,246.315 455.684,251.173 C437.367,239.052 413.18,234.819 392.086,230.087 C382.614,227.963 353.744,223.97 343.689,224.005 C324.023,224.061 302.086,219.512 281.941,218.26 C261.185,216.959 239.388,218.345 218.203,217.782 C198.817,217.255 168.189,233.729 168.189,233.729 z M240.035,263.499 C240.189,264.399 282.067,261.608 301.348,268.379 C330.141,278.518 363.981,276.353 393.914,280.444 C428.838,285.212 466.441,290.26 499.313,300.435 C510.984,304.041 531.938,310.278 541.83,315.235 C528.387,301.587 502.385,296.272 493.807,294.163 C460.57,285.95 425.801,279.27 391.825,273.54 C378.044,271.22 366.246,270.01 352.43,267.88 C338.627,265.756 309.047,259.069 295.314,257.987 C281.575,256.897 240.035,263.499 240.035,263.499 z M452.435,368.954 C429.161,366.739 382.348,359.356 382.348,359.356 C382.333,359.427 427.544,370.1 449.158,373.89 C470.309,377.588 493.947,378.713 515.379,383.452 C517.629,383.951 520.02,384.634 522.354,385.322 C521.65,382.313 520.793,379.732 520.758,378.713 C520.723,377.025 524.133,381.47 531.867,381.99 C532.619,382.032 533.364,381.892 534.096,381.681 C522.916,378.326 513.114,376.548 506.393,376.14 C496.465,375.528 474.189,371.021 452.435,368.954 z M559.731,359.173 C552.63,353.471 550.38,346.06 534.067,344.169 C515.449,342.017 505.359,342.608 485.988,338.522 C450.551,331.056 409.699,332.096 376.301,321.599 C361.746,317.049 316.148,317.401 326.814,312.599 C332.271,310.138 352.76,311.579 366.668,314.476 C387.656,318.835 409.361,322.885 430.441,325.431 C458.903,328.876 488.463,330.866 517.432,333.741 C528.07,334.796 540.072,338.649 550.605,342.861 C550.465,342.833 550.38,342.833 550.38,342.833 C550.38,342.833 557.06,346.7 560.52,352.009 C563.051,355.876 563.135,356.895 559.731,359.173" fill="url(#Gradient_8)"/>
    <path d="M55.043,319.103 C56.013,328.243 67.826,329.143 82.536,333.861 C97.216,338.579 99.411,329.579 115.266,334.452 C131.106,339.303 139.825,329.635 156.841,345.47 C173.836,361.304 175.066,361.782 204.633,375.985 C233.637,389.935 263.027,401.263 285.668,424.888 C315.888,456.408 369.114,460.431 397.957,490.798 C415.479,509.248 439.666,514.817 451.184,516.786 C462.7,518.755 501.372,496.248 501.471,490.967 C501.583,485.693 499.403,479.274 499.432,477.517 C499.474,475.759 502.807,480.54 510.822,481.426 C518.824,482.318 525.911,467.271 535.052,462.202 C544.207,457.126 545.332,457.287 541.971,451.606 C538.596,445.932 531.846,441.601 531.846,441.601 C531.846,441.601 540.888,443.556 545.416,445.876 C549.938,448.182 551.111,438.669 551.133,433.395 C551.153,428.143 542.435,419.368 535.474,413.897 C519.949,401.712 507.025,382.63 489.047,371.436 C425.168,331.688 370.676,274.187 294.442,257.544 C258.541,249.718 225.762,249.655 190.591,249.669 C169.758,249.69 148.994,256.159 128.273,259.956 C103.242,264.561 72.586,284.192 60.443,302.888 C55.619,310.306 54.565,314.588 55.043,319.103 z" fill="url(#Gradient_9)"/>
    <path d="M397.957,490.798 C415.479,509.248 439.666,514.817 451.184,516.786 C462.7,518.755 501.372,496.248 501.471,490.967 C501.492,490.123 501.442,489.244 501.372,488.373 C488.646,489.821 469.521,497.119 450.677,497.274 C426.771,497.485 407.695,475.505 386.58,464.994 C356.965,450.256 330.794,426.02 306.34,403.864 C284.438,384.021 257.88,367.442 229.488,359.202 C202.77,351.411 202.488,373.615 189.621,359.216 C176.754,344.83 171.916,337.848 154.605,335.506 C137.309,333.158 129.771,332.075 121.348,329.178 C112.945,326.274 107.622,325.255 98.356,329.6 C89.075,333.938 86.016,332.096 77.649,329.284 C72.284,327.47 61.899,323.005 54.958,317.443 C54.958,317.978 54.973,318.526 55.043,319.103 C56.013,328.243 67.826,329.143 82.536,333.861 C97.216,338.579 99.411,329.579 115.266,334.452 C131.106,339.303 141.682,339.254 158.697,355.088 C175.699,370.923 176.789,369.812 206.355,384.021 C235.359,397.958 250.652,411.654 285.281,433.17 C322.371,456.197 369.114,460.431 397.957,490.798 z" fill="url(#Gradient_10)"/>
    <path d="M98.391,302.53 C94.278,308.928 120.047,284.86 136.465,282.737 C168.653,278.532 202.403,274.791 234.564,276.113 C256.242,277.013 278.742,278.518 300.7,276.739 C280.83,268.168 256.572,273.702 235.957,272.612 C214.793,271.487 192.939,272.126 171.973,274.06 C151.849,275.916 125.861,276.493 110.73,290.162 C98.482,301.208 102.419,296.286 98.391,302.53 z M139.84,310.735 C140.086,311.649 193.966,305.202 221.064,305.884 C249.105,306.601 277.652,307.332 304.919,310.967 C335.814,315.066 369.902,319.665 399.489,330.317 C417.7,336.877 426.799,336.505 437.684,342.045 C419.227,328.616 394.266,323.103 372.574,317.225 C362.836,314.588 333.044,309.118 322.596,308.682 C302.156,307.853 279.564,302.122 258.703,299.893 C237.188,297.587 214.497,298.03 192.504,296.483 C172.395,295.048 139.84,310.735 139.84,310.735 z M213.105,344.963 C213.211,345.913 256.84,344.928 276.563,352.853 C306.002,364.693 341.25,363.997 372.166,369.622 C408.236,376.182 447.07,383.15 480.75,395.216 C492.682,399.498 514.184,406.937 524.238,412.533 C510.893,397.747 484.125,391.032 475.314,388.451 C441.164,378.396 405.354,369.854 370.324,362.358 C356.106,359.307 343.9,357.514 329.669,354.666 C315.41,351.826 285,343.529 270.775,341.764 C256.559,340.02 213.105,344.963 213.105,344.963 z M428.908,464.248 C404.833,460.888 356.528,451.064 356.528,451.064 C356.508,451.149 403.005,464.298 425.294,469.22 C447.07,474.036 471.588,476.286 493.617,482.192 C495.938,482.811 498.377,483.634 500.789,484.463 C500.191,481.306 499.418,478.571 499.432,477.517 C499.474,475.759 502.807,480.54 510.822,481.426 C511.617,481.517 512.391,481.404 513.164,481.208 C501.703,477.221 491.599,474.915 484.638,474.177 C474.352,473.101 451.43,467.392 428.908,464.248 z M540.817,459.01 C533.716,452.752 531.691,444.947 514.83,442.24 C495.606,439.154 485.088,439.302 465.161,434.169 C428.669,424.782 386.215,423.994 351.973,411.563 C337.08,406.17 289.689,404.447 300.996,399.947 C306.762,397.642 327.996,400.088 342.325,403.724 C363.911,409.208 386.285,414.411 408.047,418.032 C437.458,422.919 468.072,426.329 498.047,430.639 C509.051,432.221 521.341,436.777 532.078,441.643 C531.938,441.607 531.846,441.601 531.846,441.601 C531.846,441.601 538.596,445.932 541.971,451.606 C544.418,455.74 544.474,456.795 540.817,459.01" fill="url(#Gradient_11)"/>
    <path d="M435.117,289.592 C432.494,286.85 419.965,283.77 411.682,281.731 C408.891,281.049 406.324,280.416 404.285,279.854 C379.219,272.893 359.215,268.499 337.031,268.02 C313.371,267.514 289.619,269.413 266.648,271.248 C261.375,271.669 256.102,272.091 250.793,272.485 C249.682,272.577 247.77,272.752 245.364,272.963 C214.617,275.79 208.219,275.452 206.13,273.702 C205.525,273.188 205.16,272.506 205.104,271.768 L209.836,271.374 C209.766,270.509 209.182,270.01 208.942,269.897 C212.135,271.248 236.814,268.97 244.942,268.231 C247.383,268.006 249.316,267.831 250.441,267.746 C255.729,267.353 261.002,266.931 266.262,266.509 C289.359,264.673 313.244,262.768 337.137,263.274 C362.273,263.802 384.724,269.497 405.564,275.263 C407.555,275.825 410.064,276.444 412.828,277.112 C425.364,280.206 435.223,282.842 438.541,286.302 L435.117,289.592 z" fill="url(#Gradient_12)"/>
    <path d="M265.699,293.593 C256.559,293.593 247.685,292.827 239.317,291.013 C228.75,288.728 219.855,284.987 211.263,281.366 C198.375,275.923 186.176,270.784 169.512,270.959 L169.455,266.213 C187.125,266.002 199.746,271.346 213.105,276.985 C221.508,280.522 230.191,284.185 240.316,286.372 C275.332,293.952 320.613,282.582 351.621,273.392 C362.484,270.165 373.664,266.382 384.457,262.726 C388.689,261.291 392.895,259.864 397.057,258.479 C411.653,253.627 421.266,249.247 426.419,245.134 L429.387,248.846 C423.705,253.381 413.918,257.881 398.555,262.986 C394.406,264.364 390.208,265.791 385.989,267.212 C375.141,270.896 363.926,274.7 352.971,277.941 C328.77,285.127 295.947,293.593 265.699,293.593 z" fill="url(#Gradient_13)"/>
    <path d="M219.82,313.843 L217.45,309.716 C268.778,280.248 310.896,264.118 358.23,255.821 C359.848,255.54 361.689,255.188 363.75,254.794 C376.807,252.327 398.66,248.192 419.895,249.831 L419.528,254.577 C398.927,252.98 377.461,257.044 364.629,259.463 C362.555,259.857 360.677,260.208 359.06,260.497 C312.281,268.709 270.635,284.649 219.82,313.843 z" fill="url(#Gradient_14)"/>
    <path d="M220.699,285.845 C217.078,285.845 210.658,285.409 203.88,284.944 C196.075,284.403 184.263,283.595 182.414,284.101 C182.435,284.101 182.744,284.002 183.096,283.651 L179.707,280.325 C181.078,278.926 183.349,278.764 204.211,280.206 C210.939,280.669 217.359,281.056 220.77,281.099 C248.684,281.063 274.755,279.27 305.953,276.943 C327.869,275.298 347.719,271.423 368.721,267.317 C373.77,266.333 378.888,265.334 384.091,264.35 C386.791,263.837 389.744,263.513 392.88,263.169 C401.684,262.206 411.682,261.095 416.885,255.301 L417.841,254.239 L419.227,254.583 C419.979,254.767 422.355,255.245 421.969,257.073 C421.849,257.691 419.247,259.674 419.247,259.674 C412.723,265.763 402.492,266.888 393.4,267.901 C390.363,268.231 387.494,268.548 384.963,269.026 C379.781,270.01 374.669,270.995 369.635,271.979 C348.492,276.113 328.523,280.009 306.305,281.682 C275.016,284.017 248.859,285.81 220.77,285.845 L220.699,285.845 z" fill="url(#Gradient_15)"/>
    <path d="M308.505,285.514 C269.791,285.514 232.793,279.938 202.945,269.335 L204.541,264.856 C244.605,279.108 297.888,284.087 350.692,278.553 C369.551,276.563 406.31,270.087 424.38,258.388 L426.961,262.388 C408.138,274.56 370.465,281.239 351.199,283.264 C336.911,284.776 322.596,285.514 308.505,285.514 z" fill="url(#Gradient_16)"/>
    <path d="M243.494,312.169 C243.129,312.169 242.763,312.057 242.369,311.853 L240.541,310.876 L241.266,308.928 C241.441,308.401 241.807,307.986 242.271,307.698 C242.531,307.452 243.234,306.713 244.479,304.97 C251.355,295.463 262.127,287.905 272.59,280.958 L275.965,278.708 C290.871,268.78 307.781,257.509 325.254,252.467 C341.461,247.791 365.332,241.759 385.652,243.502 L385.244,248.228 C365.739,246.561 342.41,252.46 326.575,257.038 C309.799,261.882 293.227,272.928 278.602,282.666 L275.205,284.916 C265.122,291.61 254.73,298.888 248.332,307.747 C246.223,310.686 244.887,312.169 243.494,312.169 z" fill="url(#Gradient_17)"/>
    <path d="M248.88,278.497 C238.066,278.497 226.408,277.759 220.699,272.134 L224.018,268.751 C229.383,274.018 244.57,273.821 254.646,273.702 C256.854,273.666 258.822,273.645 260.777,273.645 C264.047,273.645 267.316,273.666 270.606,273.666 C297.846,273.751 325.992,273.807 353.013,269.272 C360.635,267.985 368.496,265.897 376.09,263.865 C384.583,261.587 393.372,259.231 401.88,258.036 L402.527,262.747 C394.314,263.9 385.666,266.213 377.32,268.442 C369.621,270.509 361.661,272.647 353.786,273.962 C326.393,278.553 298.028,278.483 270.606,278.419 C266.739,278.413 262.872,278.405 259.02,278.413 C257.669,278.413 256.221,278.427 254.695,278.448 C252.817,278.462 250.863,278.497 248.88,278.497 z" fill="url(#Gradient_18)"/>
  </g>
</svg>
